<?xml version="1.0" encoding="utf-8" standalone="no"?>
<!DOCTYPE svg PUBLIC "-//W3C//DTD SVG 1.1//EN"
  "http://www.w3.org/Graphics/SVG/1.1/DTD/svg11.dtd">
<svg xmlns:xlink="http://www.w3.org/1999/xlink" width="1105.92pt" height="545.472pt" viewBox="0 0 1105.92 545.472" xmlns="http://www.w3.org/2000/svg" version="1.1">
 <metadata>
  <rdf:RDF xmlns:dc="http://purl.org/dc/elements/1.1/" xmlns:cc="http://creativecommons.org/ns#" xmlns:rdf="http://www.w3.org/1999/02/22-rdf-syntax-ns#">
   <cc:Work>
    <dc:type rdf:resource="http://purl.org/dc/dcmitype/StillImage"/>
    <dc:date>2025-03-06T23:27:07.897225</dc:date>
    <dc:format>image/svg+xml</dc:format>
    <dc:creator>
     <cc:Agent>
      <dc:title>Matplotlib v3.10.1, https://matplotlib.org/</dc:title>
     </cc:Agent>
    </dc:creator>
   </cc:Work>
  </rdf:RDF>
 </metadata>
 <defs>
  <style type="text/css">*{stroke-linejoin: round; stroke-linecap: butt}</style>
 </defs>
 <g id="figure_1">
  <g id="patch_1">
   <path d="M 0 545.472 
L 1105.92 545.472 
L 1105.92 0 
L 0 0 
z
" style="fill: #ffffff"/>
  </g>
  <g id="axes_1">
   <g id="patch_2">
    <path d="M 110.592 436.3776 
L 995.328 436.3776 
L 995.328 54.5472 
L 110.592 54.5472 
z
" style="fill: #ffffff"/>
   </g>
   <g id="matplotlib.axis_1">
    <g id="xtick_1">
     <g id="line2d_1">
      <path d="M 154.8288 436.3776 
L 154.8288 54.5472 
" clip-path="url(#pf0903c6bb3)" style="fill: none; stroke: #cccccc; stroke-width: 0.8; stroke-linecap: round"/>
     </g>
     <g id="line2d_2"/>
     <g id="text_1">
      <!-- can_opening -->
      <g style="fill: #262626" transform="translate(96.050549 503.65819) rotate(-45) scale(0.14 -0.14)">
       <defs>
        <path id="ArialMT-63" d="M 2588 1216 
L 3141 1144 
Q 3050 572 2676 248 
Q 2303 -75 1759 -75 
Q 1078 -75 664 370 
Q 250 816 250 1647 
Q 250 2184 428 2587 
Q 606 2991 970 3192 
Q 1334 3394 1763 3394 
Q 2303 3394 2647 3120 
Q 2991 2847 3088 2344 
L 2541 2259 
Q 2463 2594 2264 2762 
Q 2066 2931 1784 2931 
Q 1359 2931 1093 2626 
Q 828 2322 828 1663 
Q 828 994 1084 691 
Q 1341 388 1753 388 
Q 2084 388 2306 591 
Q 2528 794 2588 1216 
z
" transform="scale(0.015625)"/>
        <path id="ArialMT-61" d="M 2588 409 
Q 2275 144 1986 34 
Q 1697 -75 1366 -75 
Q 819 -75 525 192 
Q 231 459 231 875 
Q 231 1119 342 1320 
Q 453 1522 633 1644 
Q 813 1766 1038 1828 
Q 1203 1872 1538 1913 
Q 2219 1994 2541 2106 
Q 2544 2222 2544 2253 
Q 2544 2597 2384 2738 
Q 2169 2928 1744 2928 
Q 1347 2928 1158 2789 
Q 969 2650 878 2297 
L 328 2372 
Q 403 2725 575 2942 
Q 747 3159 1072 3276 
Q 1397 3394 1825 3394 
Q 2250 3394 2515 3294 
Q 2781 3194 2906 3042 
Q 3031 2891 3081 2659 
Q 3109 2516 3109 2141 
L 3109 1391 
Q 3109 606 3145 398 
Q 3181 191 3288 0 
L 2700 0 
Q 2613 175 2588 409 
z
M 2541 1666 
Q 2234 1541 1622 1453 
Q 1275 1403 1131 1340 
Q 988 1278 909 1158 
Q 831 1038 831 891 
Q 831 666 1001 516 
Q 1172 366 1500 366 
Q 1825 366 2078 508 
Q 2331 650 2450 897 
Q 2541 1088 2541 1459 
L 2541 1666 
z
" transform="scale(0.015625)"/>
        <path id="ArialMT-6e" d="M 422 0 
L 422 3319 
L 928 3319 
L 928 2847 
Q 1294 3394 1984 3394 
Q 2284 3394 2536 3286 
Q 2788 3178 2913 3003 
Q 3038 2828 3088 2588 
Q 3119 2431 3119 2041 
L 3119 0 
L 2556 0 
L 2556 2019 
Q 2556 2363 2490 2533 
Q 2425 2703 2258 2804 
Q 2091 2906 1866 2906 
Q 1506 2906 1245 2678 
Q 984 2450 984 1813 
L 984 0 
L 422 0 
z
" transform="scale(0.015625)"/>
        <path id="ArialMT-5f" d="M -97 -1272 
L -97 -866 
L 3631 -866 
L 3631 -1272 
L -97 -1272 
z
" transform="scale(0.015625)"/>
        <path id="ArialMT-6f" d="M 213 1659 
Q 213 2581 725 3025 
Q 1153 3394 1769 3394 
Q 2453 3394 2887 2945 
Q 3322 2497 3322 1706 
Q 3322 1066 3130 698 
Q 2938 331 2570 128 
Q 2203 -75 1769 -75 
Q 1072 -75 642 372 
Q 213 819 213 1659 
z
M 791 1659 
Q 791 1022 1069 705 
Q 1347 388 1769 388 
Q 2188 388 2466 706 
Q 2744 1025 2744 1678 
Q 2744 2294 2464 2611 
Q 2184 2928 1769 2928 
Q 1347 2928 1069 2612 
Q 791 2297 791 1659 
z
" transform="scale(0.015625)"/>
        <path id="ArialMT-70" d="M 422 -1272 
L 422 3319 
L 934 3319 
L 934 2888 
Q 1116 3141 1344 3267 
Q 1572 3394 1897 3394 
Q 2322 3394 2647 3175 
Q 2972 2956 3137 2557 
Q 3303 2159 3303 1684 
Q 3303 1175 3120 767 
Q 2938 359 2589 142 
Q 2241 -75 1856 -75 
Q 1575 -75 1351 44 
Q 1128 163 984 344 
L 984 -1272 
L 422 -1272 
z
M 931 1641 
Q 931 1000 1190 694 
Q 1450 388 1819 388 
Q 2194 388 2461 705 
Q 2728 1022 2728 1688 
Q 2728 2322 2467 2637 
Q 2206 2953 1844 2953 
Q 1484 2953 1207 2617 
Q 931 2281 931 1641 
z
" transform="scale(0.015625)"/>
        <path id="ArialMT-65" d="M 2694 1069 
L 3275 997 
Q 3138 488 2766 206 
Q 2394 -75 1816 -75 
Q 1088 -75 661 373 
Q 234 822 234 1631 
Q 234 2469 665 2931 
Q 1097 3394 1784 3394 
Q 2450 3394 2872 2941 
Q 3294 2488 3294 1666 
Q 3294 1616 3291 1516 
L 816 1516 
Q 847 969 1125 678 
Q 1403 388 1819 388 
Q 2128 388 2347 550 
Q 2566 713 2694 1069 
z
M 847 1978 
L 2700 1978 
Q 2663 2397 2488 2606 
Q 2219 2931 1791 2931 
Q 1403 2931 1139 2672 
Q 875 2413 847 1978 
z
" transform="scale(0.015625)"/>
        <path id="ArialMT-69" d="M 425 3934 
L 425 4581 
L 988 4581 
L 988 3934 
L 425 3934 
z
M 425 0 
L 425 3319 
L 988 3319 
L 988 0 
L 425 0 
z
" transform="scale(0.015625)"/>
        <path id="ArialMT-67" d="M 319 -275 
L 866 -356 
Q 900 -609 1056 -725 
Q 1266 -881 1628 -881 
Q 2019 -881 2231 -725 
Q 2444 -569 2519 -288 
Q 2563 -116 2559 434 
Q 2191 0 1641 0 
Q 956 0 581 494 
Q 206 988 206 1678 
Q 206 2153 378 2554 
Q 550 2956 876 3175 
Q 1203 3394 1644 3394 
Q 2231 3394 2613 2919 
L 2613 3319 
L 3131 3319 
L 3131 450 
Q 3131 -325 2973 -648 
Q 2816 -972 2473 -1159 
Q 2131 -1347 1631 -1347 
Q 1038 -1347 672 -1080 
Q 306 -813 319 -275 
z
M 784 1719 
Q 784 1066 1043 766 
Q 1303 466 1694 466 
Q 2081 466 2343 764 
Q 2606 1063 2606 1700 
Q 2606 2309 2336 2618 
Q 2066 2928 1684 2928 
Q 1309 2928 1046 2623 
Q 784 2319 784 1719 
z
" transform="scale(0.015625)"/>
       </defs>
       <use xlink:href="#ArialMT-63"/>
       <use xlink:href="#ArialMT-61" transform="translate(50 0)"/>
       <use xlink:href="#ArialMT-6e" transform="translate(105.615234 0)"/>
       <use xlink:href="#ArialMT-5f" transform="translate(161.230469 0)"/>
       <use xlink:href="#ArialMT-6f" transform="translate(216.845703 0)"/>
       <use xlink:href="#ArialMT-70" transform="translate(272.460938 0)"/>
       <use xlink:href="#ArialMT-65" transform="translate(328.076172 0)"/>
       <use xlink:href="#ArialMT-6e" transform="translate(383.691406 0)"/>
       <use xlink:href="#ArialMT-69" transform="translate(439.306641 0)"/>
       <use xlink:href="#ArialMT-6e" transform="translate(461.523438 0)"/>
       <use xlink:href="#ArialMT-67" transform="translate(517.138672 0)"/>
      </g>
     </g>
    </g>
    <g id="xtick_2">
     <g id="line2d_3">
      <path d="M 243.3024 436.3776 
L 243.3024 54.5472 
" clip-path="url(#pf0903c6bb3)" style="fill: none; stroke: #cccccc; stroke-width: 0.8; stroke-linecap: round"/>
     </g>
     <g id="line2d_4"/>
     <g id="text_2">
      <!-- glass_breaking -->
      <g style="fill: #262626" transform="translate(174.633935 513.548404) rotate(-45) scale(0.14 -0.14)">
       <defs>
        <path id="ArialMT-6c" d="M 409 0 
L 409 4581 
L 972 4581 
L 972 0 
L 409 0 
z
" transform="scale(0.015625)"/>
        <path id="ArialMT-73" d="M 197 991 
L 753 1078 
Q 800 744 1014 566 
Q 1228 388 1613 388 
Q 2000 388 2187 545 
Q 2375 703 2375 916 
Q 2375 1106 2209 1216 
Q 2094 1291 1634 1406 
Q 1016 1563 777 1677 
Q 538 1791 414 1992 
Q 291 2194 291 2438 
Q 291 2659 392 2848 
Q 494 3038 669 3163 
Q 800 3259 1026 3326 
Q 1253 3394 1513 3394 
Q 1903 3394 2198 3281 
Q 2494 3169 2634 2976 
Q 2775 2784 2828 2463 
L 2278 2388 
Q 2241 2644 2061 2787 
Q 1881 2931 1553 2931 
Q 1166 2931 1000 2803 
Q 834 2675 834 2503 
Q 834 2394 903 2306 
Q 972 2216 1119 2156 
Q 1203 2125 1616 2013 
Q 2213 1853 2448 1751 
Q 2684 1650 2818 1456 
Q 2953 1263 2953 975 
Q 2953 694 2789 445 
Q 2625 197 2315 61 
Q 2006 -75 1616 -75 
Q 969 -75 630 194 
Q 291 463 197 991 
z
" transform="scale(0.015625)"/>
        <path id="ArialMT-62" d="M 941 0 
L 419 0 
L 419 4581 
L 981 4581 
L 981 2947 
Q 1338 3394 1891 3394 
Q 2197 3394 2470 3270 
Q 2744 3147 2920 2923 
Q 3097 2700 3197 2384 
Q 3297 2069 3297 1709 
Q 3297 856 2875 390 
Q 2453 -75 1863 -75 
Q 1275 -75 941 416 
L 941 0 
z
M 934 1684 
Q 934 1088 1097 822 
Q 1363 388 1816 388 
Q 2184 388 2453 708 
Q 2722 1028 2722 1663 
Q 2722 2313 2464 2622 
Q 2206 2931 1841 2931 
Q 1472 2931 1203 2611 
Q 934 2291 934 1684 
z
" transform="scale(0.015625)"/>
        <path id="ArialMT-72" d="M 416 0 
L 416 3319 
L 922 3319 
L 922 2816 
Q 1116 3169 1280 3281 
Q 1444 3394 1641 3394 
Q 1925 3394 2219 3213 
L 2025 2691 
Q 1819 2813 1613 2813 
Q 1428 2813 1281 2702 
Q 1134 2591 1072 2394 
Q 978 2094 978 1738 
L 978 0 
L 416 0 
z
" transform="scale(0.015625)"/>
        <path id="ArialMT-6b" d="M 425 0 
L 425 4581 
L 988 4581 
L 988 1969 
L 2319 3319 
L 3047 3319 
L 1778 2088 
L 3175 0 
L 2481 0 
L 1384 1697 
L 988 1316 
L 988 0 
L 425 0 
z
" transform="scale(0.015625)"/>
       </defs>
       <use xlink:href="#ArialMT-67"/>
       <use xlink:href="#ArialMT-6c" transform="translate(55.615234 0)"/>
       <use xlink:href="#ArialMT-61" transform="translate(77.832031 0)"/>
       <use xlink:href="#ArialMT-73" transform="translate(133.447266 0)"/>
       <use xlink:href="#ArialMT-73" transform="translate(183.447266 0)"/>
       <use xlink:href="#ArialMT-5f" transform="translate(233.447266 0)"/>
       <use xlink:href="#ArialMT-62" transform="translate(289.0625 0)"/>
       <use xlink:href="#ArialMT-72" transform="translate(344.677734 0)"/>
       <use xlink:href="#ArialMT-65" transform="translate(377.978516 0)"/>
       <use xlink:href="#ArialMT-61" transform="translate(433.59375 0)"/>
       <use xlink:href="#ArialMT-6b" transform="translate(489.208984 0)"/>
       <use xlink:href="#ArialMT-69" transform="translate(539.208984 0)"/>
       <use xlink:href="#ArialMT-6e" transform="translate(561.425781 0)"/>
       <use xlink:href="#ArialMT-67" transform="translate(617.041016 0)"/>
      </g>
     </g>
    </g>
    <g id="xtick_3">
     <g id="line2d_5">
      <path d="M 331.776 436.3776 
L 331.776 54.5472 
" clip-path="url(#pf0903c6bb3)" style="fill: none; stroke: #cccccc; stroke-width: 0.8; stroke-linecap: round"/>
     </g>
     <g id="line2d_6"/>
     <g id="text_3">
      <!-- pouring_water -->
      <g style="fill: #262626" transform="translate(266.960604 509.695335) rotate(-45) scale(0.14 -0.14)">
       <defs>
        <path id="ArialMT-75" d="M 2597 0 
L 2597 488 
Q 2209 -75 1544 -75 
Q 1250 -75 995 37 
Q 741 150 617 320 
Q 494 491 444 738 
Q 409 903 409 1263 
L 409 3319 
L 972 3319 
L 972 1478 
Q 972 1038 1006 884 
Q 1059 663 1231 536 
Q 1403 409 1656 409 
Q 1909 409 2131 539 
Q 2353 669 2445 892 
Q 2538 1116 2538 1541 
L 2538 3319 
L 3100 3319 
L 3100 0 
L 2597 0 
z
" transform="scale(0.015625)"/>
        <path id="ArialMT-77" d="M 1034 0 
L 19 3319 
L 600 3319 
L 1128 1403 
L 1325 691 
Q 1338 744 1497 1375 
L 2025 3319 
L 2603 3319 
L 3100 1394 
L 3266 759 
L 3456 1400 
L 4025 3319 
L 4572 3319 
L 3534 0 
L 2950 0 
L 2422 1988 
L 2294 2553 
L 1622 0 
L 1034 0 
z
" transform="scale(0.015625)"/>
        <path id="ArialMT-74" d="M 1650 503 
L 1731 6 
Q 1494 -44 1306 -44 
Q 1000 -44 831 53 
Q 663 150 594 308 
Q 525 466 525 972 
L 525 2881 
L 113 2881 
L 113 3319 
L 525 3319 
L 525 4141 
L 1084 4478 
L 1084 3319 
L 1650 3319 
L 1650 2881 
L 1084 2881 
L 1084 941 
Q 1084 700 1114 631 
Q 1144 563 1211 522 
Q 1278 481 1403 481 
Q 1497 481 1650 503 
z
" transform="scale(0.015625)"/>
       </defs>
       <use xlink:href="#ArialMT-70"/>
       <use xlink:href="#ArialMT-6f" transform="translate(55.615234 0)"/>
       <use xlink:href="#ArialMT-75" transform="translate(111.230469 0)"/>
       <use xlink:href="#ArialMT-72" transform="translate(166.845703 0)"/>
       <use xlink:href="#ArialMT-69" transform="translate(200.146484 0)"/>
       <use xlink:href="#ArialMT-6e" transform="translate(222.363281 0)"/>
       <use xlink:href="#ArialMT-67" transform="translate(277.978516 0)"/>
       <use xlink:href="#ArialMT-5f" transform="translate(333.59375 0)"/>
       <use xlink:href="#ArialMT-77" transform="translate(389.208984 0)"/>
       <use xlink:href="#ArialMT-61" transform="translate(461.425781 0)"/>
       <use xlink:href="#ArialMT-74" transform="translate(517.041016 0)"/>
       <use xlink:href="#ArialMT-65" transform="translate(544.824219 0)"/>
       <use xlink:href="#ArialMT-72" transform="translate(600.439453 0)"/>
      </g>
     </g>
    </g>
    <g id="xtick_4">
     <g id="line2d_7">
      <path d="M 420.2496 436.3776 
L 420.2496 54.5472 
" clip-path="url(#pf0903c6bb3)" style="fill: none; stroke: #cccccc; stroke-width: 0.8; stroke-linecap: round"/>
     </g>
     <g id="line2d_8"/>
     <g id="text_4">
      <!-- coughing -->
      <g style="fill: #262626" transform="translate(377.986491 487.143048) rotate(-45) scale(0.14 -0.14)">
       <defs>
        <path id="ArialMT-68" d="M 422 0 
L 422 4581 
L 984 4581 
L 984 2938 
Q 1378 3394 1978 3394 
Q 2347 3394 2619 3248 
Q 2891 3103 3008 2847 
Q 3125 2591 3125 2103 
L 3125 0 
L 2563 0 
L 2563 2103 
Q 2563 2525 2380 2717 
Q 2197 2909 1863 2909 
Q 1613 2909 1392 2779 
Q 1172 2650 1078 2428 
Q 984 2206 984 1816 
L 984 0 
L 422 0 
z
" transform="scale(0.015625)"/>
       </defs>
       <use xlink:href="#ArialMT-63"/>
       <use xlink:href="#ArialMT-6f" transform="translate(50 0)"/>
       <use xlink:href="#ArialMT-75" transform="translate(105.615234 0)"/>
       <use xlink:href="#ArialMT-67" transform="translate(161.230469 0)"/>
       <use xlink:href="#ArialMT-68" transform="translate(216.845703 0)"/>
       <use xlink:href="#ArialMT-69" transform="translate(272.460938 0)"/>
       <use xlink:href="#ArialMT-6e" transform="translate(294.677734 0)"/>
       <use xlink:href="#ArialMT-67" transform="translate(350.292969 0)"/>
      </g>
     </g>
    </g>
    <g id="xtick_5">
     <g id="line2d_9">
      <path d="M 508.7232 436.3776 
L 508.7232 54.5472 
" clip-path="url(#pf0903c6bb3)" style="fill: none; stroke: #cccccc; stroke-width: 0.8; stroke-linecap: round"/>
     </g>
     <g id="line2d_10"/>
     <g id="text_5">
      <!-- rooster -->
      <g style="fill: #262626" transform="translate(475.948138 477.77101) rotate(-45) scale(0.14 -0.14)">
       <use xlink:href="#ArialMT-72"/>
       <use xlink:href="#ArialMT-6f" transform="translate(33.300781 0)"/>
       <use xlink:href="#ArialMT-6f" transform="translate(88.916016 0)"/>
       <use xlink:href="#ArialMT-73" transform="translate(144.53125 0)"/>
       <use xlink:href="#ArialMT-74" transform="translate(194.53125 0)"/>
       <use xlink:href="#ArialMT-65" transform="translate(222.314453 0)"/>
       <use xlink:href="#ArialMT-72" transform="translate(277.929688 0)"/>
      </g>
     </g>
    </g>
    <g id="xtick_6">
     <g id="line2d_11">
      <path d="M 597.1968 436.3776 
L 597.1968 54.5472 
" clip-path="url(#pf0903c6bb3)" style="fill: none; stroke: #cccccc; stroke-width: 0.8; stroke-linecap: round"/>
     </g>
     <g id="line2d_12"/>
     <g id="text_6">
      <!-- door_wood_knock -->
      <g style="fill: #262626" transform="translate(514.884046 527.308702) rotate(-45) scale(0.14 -0.14)">
       <defs>
        <path id="ArialMT-64" d="M 2575 0 
L 2575 419 
Q 2259 -75 1647 -75 
Q 1250 -75 917 144 
Q 584 363 401 755 
Q 219 1147 219 1656 
Q 219 2153 384 2558 
Q 550 2963 881 3178 
Q 1213 3394 1622 3394 
Q 1922 3394 2156 3267 
Q 2391 3141 2538 2938 
L 2538 4581 
L 3097 4581 
L 3097 0 
L 2575 0 
z
M 797 1656 
Q 797 1019 1065 703 
Q 1334 388 1700 388 
Q 2069 388 2326 689 
Q 2584 991 2584 1609 
Q 2584 2291 2321 2609 
Q 2059 2928 1675 2928 
Q 1300 2928 1048 2622 
Q 797 2316 797 1656 
z
" transform="scale(0.015625)"/>
       </defs>
       <use xlink:href="#ArialMT-64"/>
       <use xlink:href="#ArialMT-6f" transform="translate(55.615234 0)"/>
       <use xlink:href="#ArialMT-6f" transform="translate(111.230469 0)"/>
       <use xlink:href="#ArialMT-72" transform="translate(166.845703 0)"/>
       <use xlink:href="#ArialMT-5f" transform="translate(200.146484 0)"/>
       <use xlink:href="#ArialMT-77" transform="translate(255.761719 0)"/>
       <use xlink:href="#ArialMT-6f" transform="translate(327.978516 0)"/>
       <use xlink:href="#ArialMT-6f" transform="translate(383.59375 0)"/>
       <use xlink:href="#ArialMT-64" transform="translate(439.208984 0)"/>
       <use xlink:href="#ArialMT-5f" transform="translate(494.824219 0)"/>
       <use xlink:href="#ArialMT-6b" transform="translate(550.439453 0)"/>
       <use xlink:href="#ArialMT-6e" transform="translate(600.439453 0)"/>
       <use xlink:href="#ArialMT-6f" transform="translate(656.054688 0)"/>
       <use xlink:href="#ArialMT-63" transform="translate(711.669922 0)"/>
       <use xlink:href="#ArialMT-6b" transform="translate(761.669922 0)"/>
      </g>
     </g>
    </g>
    <g id="xtick_7">
     <g id="line2d_13">
      <path d="M 685.6704 436.3776 
L 685.6704 54.5472 
" clip-path="url(#pf0903c6bb3)" style="fill: none; stroke: #cccccc; stroke-width: 0.8; stroke-linecap: round"/>
     </g>
     <g id="line2d_14"/>
     <g id="text_7">
      <!-- sneezing -->
      <g style="fill: #262626" transform="translate(643.96259 486.587748) rotate(-45) scale(0.14 -0.14)">
       <defs>
        <path id="ArialMT-7a" d="M 125 0 
L 125 456 
L 2238 2881 
Q 1878 2863 1603 2863 
L 250 2863 
L 250 3319 
L 2963 3319 
L 2963 2947 
L 1166 841 
L 819 456 
Q 1197 484 1528 484 
L 3063 484 
L 3063 0 
L 125 0 
z
" transform="scale(0.015625)"/>
       </defs>
       <use xlink:href="#ArialMT-73"/>
       <use xlink:href="#ArialMT-6e" transform="translate(50 0)"/>
       <use xlink:href="#ArialMT-65" transform="translate(105.615234 0)"/>
       <use xlink:href="#ArialMT-65" transform="translate(161.230469 0)"/>
       <use xlink:href="#ArialMT-7a" transform="translate(216.845703 0)"/>
       <use xlink:href="#ArialMT-69" transform="translate(266.845703 0)"/>
       <use xlink:href="#ArialMT-6e" transform="translate(289.0625 0)"/>
       <use xlink:href="#ArialMT-67" transform="translate(344.677734 0)"/>
      </g>
     </g>
    </g>
    <g id="xtick_8">
     <g id="line2d_15">
      <path d="M 774.144 436.3776 
L 774.144 54.5472 
" clip-path="url(#pf0903c6bb3)" style="fill: none; stroke: #cccccc; stroke-width: 0.8; stroke-linecap: round"/>
     </g>
     <g id="line2d_16"/>
     <g id="text_8">
      <!-- water_drops -->
      <g style="fill: #262626" transform="translate(717.704504 501.435444) rotate(-45) scale(0.14 -0.14)">
       <use xlink:href="#ArialMT-77"/>
       <use xlink:href="#ArialMT-61" transform="translate(72.216797 0)"/>
       <use xlink:href="#ArialMT-74" transform="translate(127.832031 0)"/>
       <use xlink:href="#ArialMT-65" transform="translate(155.615234 0)"/>
       <use xlink:href="#ArialMT-72" transform="translate(211.230469 0)"/>
       <use xlink:href="#ArialMT-5f" transform="translate(244.53125 0)"/>
       <use xlink:href="#ArialMT-64" transform="translate(300.146484 0)"/>
       <use xlink:href="#ArialMT-72" transform="translate(355.761719 0)"/>
       <use xlink:href="#ArialMT-6f" transform="translate(389.0625 0)"/>
       <use xlink:href="#ArialMT-70" transform="translate(444.677734 0)"/>
       <use xlink:href="#ArialMT-73" transform="translate(500.292969 0)"/>
      </g>
     </g>
    </g>
    <g id="xtick_9">
     <g id="line2d_17">
      <path d="M 862.6176 436.3776 
L 862.6176 54.5472 
" clip-path="url(#pf0903c6bb3)" style="fill: none; stroke: #cccccc; stroke-width: 0.8; stroke-linecap: round"/>
     </g>
     <g id="line2d_18"/>
     <g id="text_9">
      <!-- drinking_sipping -->
      <g style="fill: #262626" transform="translate(788.994747 518.502792) rotate(-45) scale(0.14 -0.14)">
       <use xlink:href="#ArialMT-64"/>
       <use xlink:href="#ArialMT-72" transform="translate(55.615234 0)"/>
       <use xlink:href="#ArialMT-69" transform="translate(88.916016 0)"/>
       <use xlink:href="#ArialMT-6e" transform="translate(111.132812 0)"/>
       <use xlink:href="#ArialMT-6b" transform="translate(166.748047 0)"/>
       <use xlink:href="#ArialMT-69" transform="translate(216.748047 0)"/>
       <use xlink:href="#ArialMT-6e" transform="translate(238.964844 0)"/>
       <use xlink:href="#ArialMT-67" transform="translate(294.580078 0)"/>
       <use xlink:href="#ArialMT-5f" transform="translate(350.195312 0)"/>
       <use xlink:href="#ArialMT-73" transform="translate(405.810547 0)"/>
       <use xlink:href="#ArialMT-69" transform="translate(455.810547 0)"/>
       <use xlink:href="#ArialMT-70" transform="translate(478.027344 0)"/>
       <use xlink:href="#ArialMT-70" transform="translate(533.642578 0)"/>
       <use xlink:href="#ArialMT-69" transform="translate(589.257812 0)"/>
       <use xlink:href="#ArialMT-6e" transform="translate(611.474609 0)"/>
       <use xlink:href="#ArialMT-67" transform="translate(667.089844 0)"/>
      </g>
     </g>
    </g>
    <g id="xtick_10">
     <g id="line2d_19">
      <path d="M 951.0912 436.3776 
L 951.0912 54.5472 
" clip-path="url(#pf0903c6bb3)" style="fill: none; stroke: #cccccc; stroke-width: 0.8; stroke-linecap: round"/>
     </g>
     <g id="line2d_20"/>
     <g id="text_10">
      <!-- mouse_click -->
      <g style="fill: #262626" transform="translate(894.659438 501.42771) rotate(-45) scale(0.14 -0.14)">
       <defs>
        <path id="ArialMT-6d" d="M 422 0 
L 422 3319 
L 925 3319 
L 925 2853 
Q 1081 3097 1340 3245 
Q 1600 3394 1931 3394 
Q 2300 3394 2536 3241 
Q 2772 3088 2869 2813 
Q 3263 3394 3894 3394 
Q 4388 3394 4653 3120 
Q 4919 2847 4919 2278 
L 4919 0 
L 4359 0 
L 4359 2091 
Q 4359 2428 4304 2576 
Q 4250 2725 4106 2815 
Q 3963 2906 3769 2906 
Q 3419 2906 3187 2673 
Q 2956 2441 2956 1928 
L 2956 0 
L 2394 0 
L 2394 2156 
Q 2394 2531 2256 2718 
Q 2119 2906 1806 2906 
Q 1569 2906 1367 2781 
Q 1166 2656 1075 2415 
Q 984 2175 984 1722 
L 984 0 
L 422 0 
z
" transform="scale(0.015625)"/>
       </defs>
       <use xlink:href="#ArialMT-6d"/>
       <use xlink:href="#ArialMT-6f" transform="translate(83.300781 0)"/>
       <use xlink:href="#ArialMT-75" transform="translate(138.916016 0)"/>
       <use xlink:href="#ArialMT-73" transform="translate(194.53125 0)"/>
       <use xlink:href="#ArialMT-65" transform="translate(244.53125 0)"/>
       <use xlink:href="#ArialMT-5f" transform="translate(300.146484 0)"/>
       <use xlink:href="#ArialMT-63" transform="translate(355.761719 0)"/>
       <use xlink:href="#ArialMT-6c" transform="translate(405.761719 0)"/>
       <use xlink:href="#ArialMT-69" transform="translate(427.978516 0)"/>
       <use xlink:href="#ArialMT-63" transform="translate(450.195312 0)"/>
       <use xlink:href="#ArialMT-6b" transform="translate(500.195312 0)"/>
      </g>
     </g>
    </g>
    <g id="text_11">
     <!-- Category -->
     <g style="fill: #262626" transform="translate(520.50125 544.923726) scale(0.16 -0.16)">
      <defs>
       <path id="ArialMT-43" d="M 3763 1606 
L 4369 1453 
Q 4178 706 3683 314 
Q 3188 -78 2472 -78 
Q 1731 -78 1267 223 
Q 803 525 561 1097 
Q 319 1669 319 2325 
Q 319 3041 592 3573 
Q 866 4106 1370 4382 
Q 1875 4659 2481 4659 
Q 3169 4659 3637 4309 
Q 4106 3959 4291 3325 
L 3694 3184 
Q 3534 3684 3231 3912 
Q 2928 4141 2469 4141 
Q 1941 4141 1586 3887 
Q 1231 3634 1087 3207 
Q 944 2781 944 2328 
Q 944 1744 1114 1308 
Q 1284 872 1643 656 
Q 2003 441 2422 441 
Q 2931 441 3284 734 
Q 3638 1028 3763 1606 
z
" transform="scale(0.015625)"/>
       <path id="ArialMT-79" d="M 397 -1278 
L 334 -750 
Q 519 -800 656 -800 
Q 844 -800 956 -737 
Q 1069 -675 1141 -563 
Q 1194 -478 1313 -144 
Q 1328 -97 1363 -6 
L 103 3319 
L 709 3319 
L 1400 1397 
Q 1534 1031 1641 628 
Q 1738 1016 1872 1384 
L 2581 3319 
L 3144 3319 
L 1881 -56 
Q 1678 -603 1566 -809 
Q 1416 -1088 1222 -1217 
Q 1028 -1347 759 -1347 
Q 597 -1347 397 -1278 
z
" transform="scale(0.015625)"/>
      </defs>
      <use xlink:href="#ArialMT-43"/>
      <use xlink:href="#ArialMT-61" transform="translate(72.216797 0)"/>
      <use xlink:href="#ArialMT-74" transform="translate(127.832031 0)"/>
      <use xlink:href="#ArialMT-65" transform="translate(155.615234 0)"/>
      <use xlink:href="#ArialMT-67" transform="translate(211.230469 0)"/>
      <use xlink:href="#ArialMT-6f" transform="translate(266.845703 0)"/>
      <use xlink:href="#ArialMT-72" transform="translate(322.460938 0)"/>
      <use xlink:href="#ArialMT-79" transform="translate(355.761719 0)"/>
     </g>
    </g>
   </g>
   <g id="matplotlib.axis_2">
    <g id="ytick_1">
     <g id="line2d_21">
      <path d="M 110.592 436.3776 
L 995.328 436.3776 
" clip-path="url(#pf0903c6bb3)" style="fill: none; stroke: #cccccc; stroke-width: 0.8; stroke-linecap: round"/>
     </g>
     <g id="line2d_22"/>
     <g id="text_12">
      <!-- 0 -->
      <g style="fill: #262626" transform="translate(99.306688 441.388069) scale(0.14 -0.14)">
       <defs>
        <path id="ArialMT-30" d="M 266 2259 
Q 266 3072 433 3567 
Q 600 4063 929 4331 
Q 1259 4600 1759 4600 
Q 2128 4600 2406 4451 
Q 2684 4303 2865 4023 
Q 3047 3744 3150 3342 
Q 3253 2941 3253 2259 
Q 3253 1453 3087 958 
Q 2922 463 2592 192 
Q 2263 -78 1759 -78 
Q 1097 -78 719 397 
Q 266 969 266 2259 
z
M 844 2259 
Q 844 1131 1108 757 
Q 1372 384 1759 384 
Q 2147 384 2411 759 
Q 2675 1134 2675 2259 
Q 2675 3391 2411 3762 
Q 2147 4134 1753 4134 
Q 1366 4134 1134 3806 
Q 844 3388 844 2259 
z
" transform="scale(0.015625)"/>
       </defs>
       <use xlink:href="#ArialMT-30"/>
      </g>
     </g>
    </g>
    <g id="ytick_2">
     <g id="line2d_23">
      <path d="M 110.592 388.529179 
L 995.328 388.529179 
" clip-path="url(#pf0903c6bb3)" style="fill: none; stroke: #cccccc; stroke-width: 0.8; stroke-linecap: round"/>
     </g>
     <g id="line2d_24"/>
     <g id="text_13">
      <!-- 5 -->
      <g style="fill: #262626" transform="translate(99.306688 393.539648) scale(0.14 -0.14)">
       <defs>
        <path id="ArialMT-35" d="M 266 1200 
L 856 1250 
Q 922 819 1161 601 
Q 1400 384 1738 384 
Q 2144 384 2425 690 
Q 2706 997 2706 1503 
Q 2706 1984 2436 2262 
Q 2166 2541 1728 2541 
Q 1456 2541 1237 2417 
Q 1019 2294 894 2097 
L 366 2166 
L 809 4519 
L 3088 4519 
L 3088 3981 
L 1259 3981 
L 1013 2750 
Q 1425 3038 1878 3038 
Q 2478 3038 2890 2622 
Q 3303 2206 3303 1553 
Q 3303 931 2941 478 
Q 2500 -78 1738 -78 
Q 1113 -78 717 272 
Q 322 622 266 1200 
z
" transform="scale(0.015625)"/>
       </defs>
       <use xlink:href="#ArialMT-35"/>
      </g>
     </g>
    </g>
    <g id="ytick_3">
     <g id="line2d_25">
      <path d="M 110.592 340.680758 
L 995.328 340.680758 
" clip-path="url(#pf0903c6bb3)" style="fill: none; stroke: #cccccc; stroke-width: 0.8; stroke-linecap: round"/>
     </g>
     <g id="line2d_26"/>
     <g id="text_14">
      <!-- 10 -->
      <g style="fill: #262626" transform="translate(91.521375 345.691227) scale(0.14 -0.14)">
       <defs>
        <path id="ArialMT-31" d="M 2384 0 
L 1822 0 
L 1822 3584 
Q 1619 3391 1289 3197 
Q 959 3003 697 2906 
L 697 3450 
Q 1169 3672 1522 3987 
Q 1875 4303 2022 4600 
L 2384 4600 
L 2384 0 
z
" transform="scale(0.015625)"/>
       </defs>
       <use xlink:href="#ArialMT-31"/>
       <use xlink:href="#ArialMT-30" transform="translate(55.615234 0)"/>
      </g>
     </g>
    </g>
    <g id="ytick_4">
     <g id="line2d_27">
      <path d="M 110.592 292.832337 
L 995.328 292.832337 
" clip-path="url(#pf0903c6bb3)" style="fill: none; stroke: #cccccc; stroke-width: 0.8; stroke-linecap: round"/>
     </g>
     <g id="line2d_28"/>
     <g id="text_15">
      <!-- 15 -->
      <g style="fill: #262626" transform="translate(91.521375 297.842806) scale(0.14 -0.14)">
       <use xlink:href="#ArialMT-31"/>
       <use xlink:href="#ArialMT-35" transform="translate(55.615234 0)"/>
      </g>
     </g>
    </g>
    <g id="ytick_5">
     <g id="line2d_29">
      <path d="M 110.592 244.983916 
L 995.328 244.983916 
" clip-path="url(#pf0903c6bb3)" style="fill: none; stroke: #cccccc; stroke-width: 0.8; stroke-linecap: round"/>
     </g>
     <g id="line2d_30"/>
     <g id="text_16">
      <!-- 20 -->
      <g style="fill: #262626" transform="translate(91.521375 249.994385) scale(0.14 -0.14)">
       <defs>
        <path id="ArialMT-32" d="M 3222 541 
L 3222 0 
L 194 0 
Q 188 203 259 391 
Q 375 700 629 1000 
Q 884 1300 1366 1694 
Q 2113 2306 2375 2664 
Q 2638 3022 2638 3341 
Q 2638 3675 2398 3904 
Q 2159 4134 1775 4134 
Q 1369 4134 1125 3890 
Q 881 3647 878 3216 
L 300 3275 
Q 359 3922 746 4261 
Q 1134 4600 1788 4600 
Q 2447 4600 2831 4234 
Q 3216 3869 3216 3328 
Q 3216 3053 3103 2787 
Q 2991 2522 2730 2228 
Q 2469 1934 1863 1422 
Q 1356 997 1212 845 
Q 1069 694 975 541 
L 3222 541 
z
" transform="scale(0.015625)"/>
       </defs>
       <use xlink:href="#ArialMT-32"/>
       <use xlink:href="#ArialMT-30" transform="translate(55.615234 0)"/>
      </g>
     </g>
    </g>
    <g id="ytick_6">
     <g id="line2d_31">
      <path d="M 110.592 197.135495 
L 995.328 197.135495 
" clip-path="url(#pf0903c6bb3)" style="fill: none; stroke: #cccccc; stroke-width: 0.8; stroke-linecap: round"/>
     </g>
     <g id="line2d_32"/>
     <g id="text_17">
      <!-- 25 -->
      <g style="fill: #262626" transform="translate(91.521375 202.145963) scale(0.14 -0.14)">
       <use xlink:href="#ArialMT-32"/>
       <use xlink:href="#ArialMT-35" transform="translate(55.615234 0)"/>
      </g>
     </g>
    </g>
    <g id="ytick_7">
     <g id="line2d_33">
      <path d="M 110.592 149.287074 
L 995.328 149.287074 
" clip-path="url(#pf0903c6bb3)" style="fill: none; stroke: #cccccc; stroke-width: 0.8; stroke-linecap: round"/>
     </g>
     <g id="line2d_34"/>
     <g id="text_18">
      <!-- 30 -->
      <g style="fill: #262626" transform="translate(91.521375 154.297542) scale(0.14 -0.14)">
       <defs>
        <path id="ArialMT-33" d="M 269 1209 
L 831 1284 
Q 928 806 1161 595 
Q 1394 384 1728 384 
Q 2125 384 2398 659 
Q 2672 934 2672 1341 
Q 2672 1728 2419 1979 
Q 2166 2231 1775 2231 
Q 1616 2231 1378 2169 
L 1441 2663 
Q 1497 2656 1531 2656 
Q 1891 2656 2178 2843 
Q 2466 3031 2466 3422 
Q 2466 3731 2256 3934 
Q 2047 4138 1716 4138 
Q 1388 4138 1169 3931 
Q 950 3725 888 3313 
L 325 3413 
Q 428 3978 793 4289 
Q 1159 4600 1703 4600 
Q 2078 4600 2393 4439 
Q 2709 4278 2876 4000 
Q 3044 3722 3044 3409 
Q 3044 3113 2884 2869 
Q 2725 2625 2413 2481 
Q 2819 2388 3044 2092 
Q 3269 1797 3269 1353 
Q 3269 753 2831 336 
Q 2394 -81 1725 -81 
Q 1122 -81 723 278 
Q 325 638 269 1209 
z
" transform="scale(0.015625)"/>
       </defs>
       <use xlink:href="#ArialMT-33"/>
       <use xlink:href="#ArialMT-30" transform="translate(55.615234 0)"/>
      </g>
     </g>
    </g>
    <g id="ytick_8">
     <g id="line2d_35">
      <path d="M 110.592 101.438653 
L 995.328 101.438653 
" clip-path="url(#pf0903c6bb3)" style="fill: none; stroke: #cccccc; stroke-width: 0.8; stroke-linecap: round"/>
     </g>
     <g id="line2d_36"/>
     <g id="text_19">
      <!-- 35 -->
      <g style="fill: #262626" transform="translate(91.521375 106.449121) scale(0.14 -0.14)">
       <use xlink:href="#ArialMT-33"/>
       <use xlink:href="#ArialMT-35" transform="translate(55.615234 0)"/>
      </g>
     </g>
    </g>
    <g id="text_20">
     <!-- Count -->
     <g style="fill: #262626" transform="translate(84.341375 266.80865) rotate(-90) scale(0.16 -0.16)">
      <use xlink:href="#ArialMT-43"/>
      <use xlink:href="#ArialMT-6f" transform="translate(72.216797 0)"/>
      <use xlink:href="#ArialMT-75" transform="translate(127.832031 0)"/>
      <use xlink:href="#ArialMT-6e" transform="translate(183.447266 0)"/>
      <use xlink:href="#ArialMT-74" transform="translate(239.0625 0)"/>
     </g>
    </g>
   </g>
   <g id="patch_3">
    <path d="M 132.7104 436.3776 
L 176.9472 436.3776 
L 176.9472 206.705179 
L 132.7104 206.705179 
z
" clip-path="url(#pf0903c6bb3)" style="fill: #440154"/>
   </g>
   <g id="patch_4">
    <path d="M 221.184 436.3776 
L 265.4208 436.3776 
L 265.4208 149.287074 
L 221.184 149.287074 
z
" clip-path="url(#pf0903c6bb3)" style="fill: #440154"/>
   </g>
   <g id="patch_5">
    <path d="M 309.6576 436.3776 
L 353.8944 436.3776 
L 353.8944 369.389811 
L 309.6576 369.389811 
z
" clip-path="url(#pf0903c6bb3)" style="fill: #440154"/>
   </g>
   <g id="patch_6">
    <path d="M 398.1312 436.3776 
L 442.368 436.3776 
L 442.368 235.414232 
L 398.1312 235.414232 
z
" clip-path="url(#pf0903c6bb3)" style="fill: #440154"/>
   </g>
   <g id="patch_7">
    <path d="M 486.6048 436.3776 
L 530.8416 436.3776 
L 530.8416 111.008337 
L 486.6048 111.008337 
z
" clip-path="url(#pf0903c6bb3)" style="fill: #440154"/>
   </g>
   <g id="patch_8">
    <path d="M 575.0784 436.3776 
L 619.3152 436.3776 
L 619.3152 168.426442 
L 575.0784 168.426442 
z
" clip-path="url(#pf0903c6bb3)" style="fill: #440154"/>
   </g>
   <g id="patch_9">
    <path d="M 663.552 436.3776 
L 707.7888 436.3776 
L 707.7888 177.996126 
L 663.552 177.996126 
z
" clip-path="url(#pf0903c6bb3)" style="fill: #440154"/>
   </g>
   <g id="patch_10">
    <path d="M 752.0256 436.3776 
L 796.2624 436.3776 
L 796.2624 331.111074 
L 752.0256 331.111074 
z
" clip-path="url(#pf0903c6bb3)" style="fill: #440154"/>
   </g>
   <g id="patch_11">
    <path d="M 840.4992 436.3776 
L 884.736 436.3776 
L 884.736 292.832337 
L 840.4992 292.832337 
z
" clip-path="url(#pf0903c6bb3)" style="fill: #440154"/>
   </g>
   <g id="patch_12">
    <path d="M 928.9728 436.3776 
L 973.2096 436.3776 
L 973.2096 321.541389 
L 928.9728 321.541389 
z
" clip-path="url(#pf0903c6bb3)" style="fill: #440154"/>
   </g>
   <g id="patch_13">
    <path d="M 132.7104 436.3776 
L 176.9472 436.3776 
L 176.9472 436.3776 
L 132.7104 436.3776 
z
" clip-path="url(#pf0903c6bb3)" style="fill: #21918c"/>
   </g>
   <g id="patch_14">
    <path d="M 221.184 436.3776 
L 265.4208 436.3776 
L 265.4208 436.3776 
L 221.184 436.3776 
z
" clip-path="url(#pf0903c6bb3)" style="fill: #21918c"/>
   </g>
   <g id="patch_15">
    <path d="M 309.6576 436.3776 
L 353.8944 436.3776 
L 353.8944 436.3776 
L 309.6576 436.3776 
z
" clip-path="url(#pf0903c6bb3)" style="fill: #21918c"/>
   </g>
   <g id="patch_16">
    <path d="M 398.1312 235.414232 
L 442.368 235.414232 
L 442.368 168.426442 
L 398.1312 168.426442 
z
" clip-path="url(#pf0903c6bb3)" style="fill: #21918c"/>
   </g>
   <g id="patch_17">
    <path d="M 486.6048 436.3776 
L 530.8416 436.3776 
L 530.8416 436.3776 
L 486.6048 436.3776 
z
" clip-path="url(#pf0903c6bb3)" style="fill: #21918c"/>
   </g>
   <g id="patch_18">
    <path d="M 575.0784 168.426442 
L 619.3152 168.426442 
L 619.3152 158.856758 
L 575.0784 158.856758 
z
" clip-path="url(#pf0903c6bb3)" style="fill: #21918c"/>
   </g>
   <g id="patch_19">
    <path d="M 663.552 436.3776 
L 707.7888 436.3776 
L 707.7888 436.3776 
L 663.552 436.3776 
z
" clip-path="url(#pf0903c6bb3)" style="fill: #21918c"/>
   </g>
   <g id="patch_20">
    <path d="M 752.0256 436.3776 
L 796.2624 436.3776 
L 796.2624 436.3776 
L 752.0256 436.3776 
z
" clip-path="url(#pf0903c6bb3)" style="fill: #21918c"/>
   </g>
   <g id="patch_21">
    <path d="M 840.4992 436.3776 
L 884.736 436.3776 
L 884.736 436.3776 
L 840.4992 436.3776 
z
" clip-path="url(#pf0903c6bb3)" style="fill: #21918c"/>
   </g>
   <g id="patch_22">
    <path d="M 928.9728 436.3776 
L 973.2096 436.3776 
L 973.2096 436.3776 
L 928.9728 436.3776 
z
" clip-path="url(#pf0903c6bb3)" style="fill: #21918c"/>
   </g>
   <g id="patch_23">
    <path d="M 132.7104 206.705179 
L 176.9472 206.705179 
L 176.9472 72.7296 
L 132.7104 72.7296 
z
" clip-path="url(#pf0903c6bb3)" style="fill: #fde725"/>
   </g>
   <g id="patch_24">
    <path d="M 221.184 149.287074 
L 265.4208 149.287074 
L 265.4208 82.299284 
L 221.184 82.299284 
z
" clip-path="url(#pf0903c6bb3)" style="fill: #fde725"/>
   </g>
   <g id="patch_25">
    <path d="M 309.6576 369.389811 
L 353.8944 369.389811 
L 353.8944 91.868968 
L 309.6576 91.868968 
z
" clip-path="url(#pf0903c6bb3)" style="fill: #fde725"/>
   </g>
   <g id="patch_26">
    <path d="M 398.1312 168.426442 
L 442.368 168.426442 
L 442.368 101.438653 
L 398.1312 101.438653 
z
" clip-path="url(#pf0903c6bb3)" style="fill: #fde725"/>
   </g>
   <g id="patch_27">
    <path d="M 486.6048 111.008337 
L 530.8416 111.008337 
L 530.8416 101.438653 
L 486.6048 101.438653 
z
" clip-path="url(#pf0903c6bb3)" style="fill: #fde725"/>
   </g>
   <g id="patch_28">
    <path d="M 575.0784 158.856758 
L 619.3152 158.856758 
L 619.3152 120.578021 
L 575.0784 120.578021 
z
" clip-path="url(#pf0903c6bb3)" style="fill: #fde725"/>
   </g>
   <g id="patch_29">
    <path d="M 663.552 177.996126 
L 707.7888 177.996126 
L 707.7888 120.578021 
L 663.552 120.578021 
z
" clip-path="url(#pf0903c6bb3)" style="fill: #fde725"/>
   </g>
   <g id="patch_30">
    <path d="M 752.0256 331.111074 
L 796.2624 331.111074 
L 796.2624 130.147705 
L 752.0256 130.147705 
z
" clip-path="url(#pf0903c6bb3)" style="fill: #fde725"/>
   </g>
   <g id="patch_31">
    <path d="M 840.4992 292.832337 
L 884.736 292.832337 
L 884.736 130.147705 
L 840.4992 130.147705 
z
" clip-path="url(#pf0903c6bb3)" style="fill: #fde725"/>
   </g>
   <g id="patch_32">
    <path d="M 928.9728 321.541389 
L 973.2096 321.541389 
L 973.2096 168.426442 
L 928.9728 168.426442 
z
" clip-path="url(#pf0903c6bb3)" style="fill: #fde725"/>
   </g>
   <g id="patch_33">
    <path d="M 110.592 436.3776 
L 110.592 54.5472 
" style="fill: none; stroke: #cccccc; stroke-linejoin: miter; stroke-linecap: square"/>
   </g>
   <g id="patch_34">
    <path d="M 995.328 436.3776 
L 995.328 54.5472 
" style="fill: none; stroke: #cccccc; stroke-linejoin: miter; stroke-linecap: square"/>
   </g>
   <g id="patch_35">
    <path d="M 110.592 436.3776 
L 995.328 436.3776 
" style="fill: none; stroke: #cccccc; stroke-linejoin: miter; stroke-linecap: square"/>
   </g>
   <g id="patch_36">
    <path d="M 110.592 54.5472 
L 995.328 54.5472 
" style="fill: none; stroke: #cccccc; stroke-linejoin: miter; stroke-linecap: square"/>
   </g>
   <g id="text_21">
    <!-- 38 -->
    <g style="fill: #262626" transform="translate(148.155675 67.944758) scale(0.12 -0.12)">
     <defs>
      <path id="ArialMT-38" d="M 1131 2484 
Q 781 2613 612 2850 
Q 444 3088 444 3419 
Q 444 3919 803 4259 
Q 1163 4600 1759 4600 
Q 2359 4600 2725 4251 
Q 3091 3903 3091 3403 
Q 3091 3084 2923 2848 
Q 2756 2613 2416 2484 
Q 2838 2347 3058 2040 
Q 3278 1734 3278 1309 
Q 3278 722 2862 322 
Q 2447 -78 1769 -78 
Q 1091 -78 675 323 
Q 259 725 259 1325 
Q 259 1772 486 2073 
Q 713 2375 1131 2484 
z
M 1019 3438 
Q 1019 3113 1228 2906 
Q 1438 2700 1772 2700 
Q 2097 2700 2305 2904 
Q 2513 3109 2513 3406 
Q 2513 3716 2298 3927 
Q 2084 4138 1766 4138 
Q 1444 4138 1231 3931 
Q 1019 3725 1019 3438 
z
M 838 1322 
Q 838 1081 952 856 
Q 1066 631 1291 507 
Q 1516 384 1775 384 
Q 2178 384 2440 643 
Q 2703 903 2703 1303 
Q 2703 1709 2433 1975 
Q 2163 2241 1756 2241 
Q 1359 2241 1098 1978 
Q 838 1716 838 1322 
z
" transform="scale(0.015625)"/>
     </defs>
     <use xlink:href="#ArialMT-33"/>
     <use xlink:href="#ArialMT-38" transform="translate(55.615234 0)"/>
    </g>
   </g>
   <g id="text_22">
    <!-- 37 -->
    <g style="fill: #262626" transform="translate(236.629275 77.514442) scale(0.12 -0.12)">
     <defs>
      <path id="ArialMT-37" d="M 303 3981 
L 303 4522 
L 3269 4522 
L 3269 4084 
Q 2831 3619 2401 2847 
Q 1972 2075 1738 1259 
Q 1569 684 1522 0 
L 944 0 
Q 953 541 1156 1306 
Q 1359 2072 1739 2783 
Q 2119 3494 2547 3981 
L 303 3981 
z
" transform="scale(0.015625)"/>
     </defs>
     <use xlink:href="#ArialMT-33"/>
     <use xlink:href="#ArialMT-37" transform="translate(55.615234 0)"/>
    </g>
   </g>
   <g id="text_23">
    <!-- 36 -->
    <g style="fill: #262626" transform="translate(325.102875 87.084126) scale(0.12 -0.12)">
     <defs>
      <path id="ArialMT-36" d="M 3184 3459 
L 2625 3416 
Q 2550 3747 2413 3897 
Q 2184 4138 1850 4138 
Q 1581 4138 1378 3988 
Q 1113 3794 959 3422 
Q 806 3050 800 2363 
Q 1003 2672 1297 2822 
Q 1591 2972 1913 2972 
Q 2475 2972 2870 2558 
Q 3266 2144 3266 1488 
Q 3266 1056 3080 686 
Q 2894 316 2569 119 
Q 2244 -78 1831 -78 
Q 1128 -78 684 439 
Q 241 956 241 2144 
Q 241 3472 731 4075 
Q 1159 4600 1884 4600 
Q 2425 4600 2770 4297 
Q 3116 3994 3184 3459 
z
M 888 1484 
Q 888 1194 1011 928 
Q 1134 663 1356 523 
Q 1578 384 1822 384 
Q 2178 384 2434 671 
Q 2691 959 2691 1453 
Q 2691 1928 2437 2201 
Q 2184 2475 1800 2475 
Q 1419 2475 1153 2201 
Q 888 1928 888 1484 
z
" transform="scale(0.015625)"/>
     </defs>
     <use xlink:href="#ArialMT-33"/>
     <use xlink:href="#ArialMT-36" transform="translate(55.615234 0)"/>
    </g>
   </g>
   <g id="text_24">
    <!-- 35 -->
    <g style="fill: #262626" transform="translate(413.576475 96.653811) scale(0.12 -0.12)">
     <use xlink:href="#ArialMT-33"/>
     <use xlink:href="#ArialMT-35" transform="translate(55.615234 0)"/>
    </g>
   </g>
   <g id="text_25">
    <!-- 35 -->
    <g style="fill: #262626" transform="translate(502.050075 96.653811) scale(0.12 -0.12)">
     <use xlink:href="#ArialMT-33"/>
     <use xlink:href="#ArialMT-35" transform="translate(55.615234 0)"/>
    </g>
   </g>
   <g id="text_26">
    <!-- 33 -->
    <g style="fill: #262626" transform="translate(590.523675 115.793179) scale(0.12 -0.12)">
     <use xlink:href="#ArialMT-33"/>
     <use xlink:href="#ArialMT-33" transform="translate(55.615234 0)"/>
    </g>
   </g>
   <g id="text_27">
    <!-- 33 -->
    <g style="fill: #262626" transform="translate(678.997275 115.793179) scale(0.12 -0.12)">
     <use xlink:href="#ArialMT-33"/>
     <use xlink:href="#ArialMT-33" transform="translate(55.615234 0)"/>
    </g>
   </g>
   <g id="text_28">
    <!-- 32 -->
    <g style="fill: #262626" transform="translate(767.470875 125.362863) scale(0.12 -0.12)">
     <use xlink:href="#ArialMT-33"/>
     <use xlink:href="#ArialMT-32" transform="translate(55.615234 0)"/>
    </g>
   </g>
   <g id="text_29">
    <!-- 32 -->
    <g style="fill: #262626" transform="translate(855.944475 125.362863) scale(0.12 -0.12)">
     <use xlink:href="#ArialMT-33"/>
     <use xlink:href="#ArialMT-32" transform="translate(55.615234 0)"/>
    </g>
   </g>
   <g id="text_30">
    <!-- 28 -->
    <g style="fill: #262626" transform="translate(944.418075 163.6416) scale(0.12 -0.12)">
     <use xlink:href="#ArialMT-32"/>
     <use xlink:href="#ArialMT-38" transform="translate(55.615234 0)"/>
    </g>
   </g>
   <g id="text_31">
    <!-- Distribution of Top Categories Across Selected Clusters -->
    <g style="fill: #262626" transform="translate(332.530313 34.5472) scale(0.18 -0.18)">
     <defs>
      <path id="ArialMT-44" d="M 494 0 
L 494 4581 
L 2072 4581 
Q 2606 4581 2888 4516 
Q 3281 4425 3559 4188 
Q 3922 3881 4101 3404 
Q 4281 2928 4281 2316 
Q 4281 1794 4159 1391 
Q 4038 988 3847 723 
Q 3656 459 3429 307 
Q 3203 156 2883 78 
Q 2563 0 2147 0 
L 494 0 
z
M 1100 541 
L 2078 541 
Q 2531 541 2789 625 
Q 3047 709 3200 863 
Q 3416 1078 3536 1442 
Q 3656 1806 3656 2325 
Q 3656 3044 3420 3430 
Q 3184 3816 2847 3947 
Q 2603 4041 2063 4041 
L 1100 4041 
L 1100 541 
z
" transform="scale(0.015625)"/>
      <path id="ArialMT-20" transform="scale(0.015625)"/>
      <path id="ArialMT-66" d="M 556 0 
L 556 2881 
L 59 2881 
L 59 3319 
L 556 3319 
L 556 3672 
Q 556 4006 616 4169 
Q 697 4388 901 4523 
Q 1106 4659 1475 4659 
Q 1713 4659 2000 4603 
L 1916 4113 
Q 1741 4144 1584 4144 
Q 1328 4144 1222 4034 
Q 1116 3925 1116 3625 
L 1116 3319 
L 1763 3319 
L 1763 2881 
L 1116 2881 
L 1116 0 
L 556 0 
z
" transform="scale(0.015625)"/>
      <path id="ArialMT-54" d="M 1659 0 
L 1659 4041 
L 150 4041 
L 150 4581 
L 3781 4581 
L 3781 4041 
L 2266 4041 
L 2266 0 
L 1659 0 
z
" transform="scale(0.015625)"/>
      <path id="ArialMT-41" d="M -9 0 
L 1750 4581 
L 2403 4581 
L 4278 0 
L 3588 0 
L 3053 1388 
L 1138 1388 
L 634 0 
L -9 0 
z
M 1313 1881 
L 2866 1881 
L 2388 3150 
Q 2169 3728 2063 4100 
Q 1975 3659 1816 3225 
L 1313 1881 
z
" transform="scale(0.015625)"/>
      <path id="ArialMT-53" d="M 288 1472 
L 859 1522 
Q 900 1178 1048 958 
Q 1197 738 1509 602 
Q 1822 466 2213 466 
Q 2559 466 2825 569 
Q 3091 672 3220 851 
Q 3350 1031 3350 1244 
Q 3350 1459 3225 1620 
Q 3100 1781 2813 1891 
Q 2628 1963 1997 2114 
Q 1366 2266 1113 2400 
Q 784 2572 623 2826 
Q 463 3081 463 3397 
Q 463 3744 659 4045 
Q 856 4347 1234 4503 
Q 1613 4659 2075 4659 
Q 2584 4659 2973 4495 
Q 3363 4331 3572 4012 
Q 3781 3694 3797 3291 
L 3216 3247 
Q 3169 3681 2898 3903 
Q 2628 4125 2100 4125 
Q 1550 4125 1298 3923 
Q 1047 3722 1047 3438 
Q 1047 3191 1225 3031 
Q 1400 2872 2139 2705 
Q 2878 2538 3153 2413 
Q 3553 2228 3743 1945 
Q 3934 1663 3934 1294 
Q 3934 928 3725 604 
Q 3516 281 3123 101 
Q 2731 -78 2241 -78 
Q 1619 -78 1198 103 
Q 778 284 539 648 
Q 300 1013 288 1472 
z
" transform="scale(0.015625)"/>
     </defs>
     <use xlink:href="#ArialMT-44"/>
     <use xlink:href="#ArialMT-69" transform="translate(72.216797 0)"/>
     <use xlink:href="#ArialMT-73" transform="translate(94.433594 0)"/>
     <use xlink:href="#ArialMT-74" transform="translate(144.433594 0)"/>
     <use xlink:href="#ArialMT-72" transform="translate(172.216797 0)"/>
     <use xlink:href="#ArialMT-69" transform="translate(205.517578 0)"/>
     <use xlink:href="#ArialMT-62" transform="translate(227.734375 0)"/>
     <use xlink:href="#ArialMT-75" transform="translate(283.349609 0)"/>
     <use xlink:href="#ArialMT-74" transform="translate(338.964844 0)"/>
     <use xlink:href="#ArialMT-69" transform="translate(366.748047 0)"/>
     <use xlink:href="#ArialMT-6f" transform="translate(388.964844 0)"/>
     <use xlink:href="#ArialMT-6e" transform="translate(444.580078 0)"/>
     <use xlink:href="#ArialMT-20" transform="translate(500.195312 0)"/>
     <use xlink:href="#ArialMT-6f" transform="translate(527.978516 0)"/>
     <use xlink:href="#ArialMT-66" transform="translate(583.59375 0)"/>
     <use xlink:href="#ArialMT-20" transform="translate(611.376953 0)"/>
     <use xlink:href="#ArialMT-54" transform="translate(637.410156 0)"/>
     <use xlink:href="#ArialMT-6f" transform="translate(687.369141 0)"/>
     <use xlink:href="#ArialMT-70" transform="translate(742.984375 0)"/>
     <use xlink:href="#ArialMT-20" transform="translate(798.599609 0)"/>
     <use xlink:href="#ArialMT-43" transform="translate(826.382812 0)"/>
     <use xlink:href="#ArialMT-61" transform="translate(898.599609 0)"/>
     <use xlink:href="#ArialMT-74" transform="translate(954.214844 0)"/>
     <use xlink:href="#ArialMT-65" transform="translate(981.998047 0)"/>
     <use xlink:href="#ArialMT-67" transform="translate(1037.613281 0)"/>
     <use xlink:href="#ArialMT-6f" transform="translate(1093.228516 0)"/>
     <use xlink:href="#ArialMT-72" transform="translate(1148.84375 0)"/>
     <use xlink:href="#ArialMT-69" transform="translate(1182.144531 0)"/>
     <use xlink:href="#ArialMT-65" transform="translate(1204.361328 0)"/>
     <use xlink:href="#ArialMT-73" transform="translate(1259.976562 0)"/>
     <use xlink:href="#ArialMT-20" transform="translate(1309.976562 0)"/>
     <use xlink:href="#ArialMT-41" transform="translate(1332.259766 0)"/>
     <use xlink:href="#ArialMT-63" transform="translate(1398.958984 0)"/>
     <use xlink:href="#ArialMT-72" transform="translate(1448.958984 0)"/>
     <use xlink:href="#ArialMT-6f" transform="translate(1482.259766 0)"/>
     <use xlink:href="#ArialMT-73" transform="translate(1537.875 0)"/>
     <use xlink:href="#ArialMT-73" transform="translate(1587.875 0)"/>
     <use xlink:href="#ArialMT-20" transform="translate(1637.875 0)"/>
     <use xlink:href="#ArialMT-53" transform="translate(1665.658203 0)"/>
     <use xlink:href="#ArialMT-65" transform="translate(1732.357422 0)"/>
     <use xlink:href="#ArialMT-6c" transform="translate(1787.972656 0)"/>
     <use xlink:href="#ArialMT-65" transform="translate(1810.189453 0)"/>
     <use xlink:href="#ArialMT-63" transform="translate(1865.804688 0)"/>
     <use xlink:href="#ArialMT-74" transform="translate(1915.804688 0)"/>
     <use xlink:href="#ArialMT-65" transform="translate(1943.587891 0)"/>
     <use xlink:href="#ArialMT-64" transform="translate(1999.203125 0)"/>
     <use xlink:href="#ArialMT-20" transform="translate(2054.818359 0)"/>
     <use xlink:href="#ArialMT-43" transform="translate(2082.601562 0)"/>
     <use xlink:href="#ArialMT-6c" transform="translate(2154.818359 0)"/>
     <use xlink:href="#ArialMT-75" transform="translate(2177.035156 0)"/>
     <use xlink:href="#ArialMT-73" transform="translate(2232.650391 0)"/>
     <use xlink:href="#ArialMT-74" transform="translate(2282.650391 0)"/>
     <use xlink:href="#ArialMT-65" transform="translate(2310.433594 0)"/>
     <use xlink:href="#ArialMT-72" transform="translate(2366.048828 0)"/>
     <use xlink:href="#ArialMT-73" transform="translate(2399.349609 0)"/>
    </g>
   </g>
   <g id="legend_1">
    <g id="text_32">
     <!-- Cluster -->
     <g style="fill: #262626" transform="translate(912.947844 77.168138) scale(0.14 -0.14)">
      <use xlink:href="#ArialMT-43"/>
      <use xlink:href="#ArialMT-6c" transform="translate(72.216797 0)"/>
      <use xlink:href="#ArialMT-75" transform="translate(94.433594 0)"/>
      <use xlink:href="#ArialMT-73" transform="translate(150.048828 0)"/>
      <use xlink:href="#ArialMT-74" transform="translate(200.048828 0)"/>
      <use xlink:href="#ArialMT-65" transform="translate(227.832031 0)"/>
      <use xlink:href="#ArialMT-72" transform="translate(283.447266 0)"/>
     </g>
    </g>
    <g id="patch_37">
     <path d="M 887.5105 96.971575 
L 915.5105 96.971575 
L 915.5105 87.171575 
L 887.5105 87.171575 
z
" style="fill: #440154"/>
    </g>
    <g id="text_33">
     <!-- Cluster 1 -->
     <g style="fill: #262626" transform="translate(926.7105 96.971575) scale(0.14 -0.14)">
      <use xlink:href="#ArialMT-43"/>
      <use xlink:href="#ArialMT-6c" transform="translate(72.216797 0)"/>
      <use xlink:href="#ArialMT-75" transform="translate(94.433594 0)"/>
      <use xlink:href="#ArialMT-73" transform="translate(150.048828 0)"/>
      <use xlink:href="#ArialMT-74" transform="translate(200.048828 0)"/>
      <use xlink:href="#ArialMT-65" transform="translate(227.832031 0)"/>
      <use xlink:href="#ArialMT-72" transform="translate(283.447266 0)"/>
      <use xlink:href="#ArialMT-20" transform="translate(316.748047 0)"/>
      <use xlink:href="#ArialMT-31" transform="translate(344.53125 0)"/>
     </g>
    </g>
    <g id="patch_38">
     <path d="M 887.5105 116.775013 
L 915.5105 116.775013 
L 915.5105 106.975013 
L 887.5105 106.975013 
z
" style="fill: #21918c"/>
    </g>
    <g id="text_34">
     <!-- Cluster 2 -->
     <g style="fill: #262626" transform="translate(926.7105 116.775013) scale(0.14 -0.14)">
      <use xlink:href="#ArialMT-43"/>
      <use xlink:href="#ArialMT-6c" transform="translate(72.216797 0)"/>
      <use xlink:href="#ArialMT-75" transform="translate(94.433594 0)"/>
      <use xlink:href="#ArialMT-73" transform="translate(150.048828 0)"/>
      <use xlink:href="#ArialMT-74" transform="translate(200.048828 0)"/>
      <use xlink:href="#ArialMT-65" transform="translate(227.832031 0)"/>
      <use xlink:href="#ArialMT-72" transform="translate(283.447266 0)"/>
      <use xlink:href="#ArialMT-20" transform="translate(316.748047 0)"/>
      <use xlink:href="#ArialMT-32" transform="translate(344.53125 0)"/>
     </g>
    </g>
    <g id="patch_39">
     <path d="M 887.5105 136.57845 
L 915.5105 136.57845 
L 915.5105 126.77845 
L 887.5105 126.77845 
z
" style="fill: #fde725"/>
    </g>
    <g id="text_35">
     <!-- Cluster 3 -->
     <g style="fill: #262626" transform="translate(926.7105 136.57845) scale(0.14 -0.14)">
      <use xlink:href="#ArialMT-43"/>
      <use xlink:href="#ArialMT-6c" transform="translate(72.216797 0)"/>
      <use xlink:href="#ArialMT-75" transform="translate(94.433594 0)"/>
      <use xlink:href="#ArialMT-73" transform="translate(150.048828 0)"/>
      <use xlink:href="#ArialMT-74" transform="translate(200.048828 0)"/>
      <use xlink:href="#ArialMT-65" transform="translate(227.832031 0)"/>
      <use xlink:href="#ArialMT-72" transform="translate(283.447266 0)"/>
      <use xlink:href="#ArialMT-20" transform="translate(316.748047 0)"/>
      <use xlink:href="#ArialMT-33" transform="translate(344.53125 0)"/>
     </g>
    </g>
   </g>
  </g>
 </g>
 <defs>
  <clipPath id="pf0903c6bb3">
   <rect x="110.592" y="54.5472" width="884.736" height="381.8304"/>
  </clipPath>
 </defs>
</svg>
